# Alias OBJ Model File
# Exported from SketchUp, (c) 2000-2012 Trimble Navigation Limited
# File units = millimeters

mtllib Todi pcb shavlon.mtl

g Mesh1 Model

usemtl FrontColor
v 3.1 0 -10
vt -0.122047 0.393701
vn 0 -1 -0
v 1.6 0 -9.5
vt -0.0629921 0.374016
v 1.6 0 -10
vt -0.0629921 0.393701
f 1/1/1 2/2/1 3/3/1

v 3.1 0 -9.5
vt -0.122047 0.374016
f 2/2/1 1/1/1 4/4/1

v 4.6 0 -29.6
vt -0.181102 1.16535
f 1/1/1 5/5/1 4/4/1

v 3.1 0 -12
vt -0.122047 0.472441
f 6/6/1 5/5/1 1/1/1

v 1.6 0 -12
vt -0.0629921 0.472441
f 7/7/1 5/5/1 6/6/1

v 0 0 -70.2
vt 0 2.76378
f 7/7/1 8/8/1 5/5/1

v 0 0 -0
vt 0 0
f 8/8/1 7/7/1 9/9/1

f 2/2/1 9/9/1 7/7/1

v 1.6 0 -7.5
vt -0.0629921 0.295276
f 10/10/1 9/9/1 2/2/1

v 45.3 0 -0
vt -1.78346 0
f 9/9/1 10/10/1 11/11/1

v 3.1 0 -7.5
vt -0.122047 0.295276
f 11/11/1 10/10/1 12/12/1

vt -0.122047 0
vn 0 0 -1
vt -0.0629921 0
v 1.6 0.8 -7.5
vt -0.0629921 0.0314961
v 3.1 0.8 -7.5
vt -0.122047 0.0314961
f 12/13/2 10/14/2 13/15/2 14/16/2 

vt 0.295276 0
vn 1 0 -3.52496e-16
vt 0.374016 0
v 1.6 0.8 -9.5
vt 0.374016 0.0314961
vt 0.295276 0.0314961
f 10/17/3 2/18/3 15/19/3 13/20/3 

vt 0.0629921 0
vn 0 0 1
vt 0.122047 0
v 3.1 0.8 -9.5
vt 0.122047 0.0314961
vt 0.0629921 0.0314961
f 2/21/4 4/22/4 16/23/4 15/24/4 

vt -0.374016 0
vn -1 0 3.52496e-16
vt -0.295276 0
vt -0.295276 0.0314961
vt -0.374016 0.0314961
f 4/25/5 12/26/5 14/27/5 16/28/5 

f 4/4/1 5/5/1 12/12/1

v 4.1 0 -12
vt -0.161417 0.472441
f 12/12/1 5/5/1 17/29/1

v 4.6 0 -25.6
vt -0.181102 1.00787
f 18/30/1 17/29/1 5/5/1

v 5.6 0 -12
vt -0.220472 0.472441
f 17/29/1 18/30/1 19/31/1

v 5.5 0 -19.77
vt -0.216535 0.778346
f 19/31/1 18/30/1 20/32/1

v 5.5 0 -21.27
vt -0.216535 0.837402
f 20/32/1 18/30/1 21/33/1

v 5.5 0 -25.1
vt -0.216535 0.988189
f 21/33/1 18/30/1 22/34/1

v 6.6 0 -25.6
vt -0.259843 1.00787
f 23/35/1 22/34/1 18/30/1

v 8 0 -25.1
vt -0.314961 0.988189
f 22/34/1 23/35/1 24/36/1

v 7.2 0 -26
vt -0.283465 1.02362
f 24/36/1 23/35/1 25/37/1

v 7.2 0 -28
vt -0.283465 1.10236
f 25/37/1 23/35/1 26/38/1

v 9.6 0 -47
vt -0.377953 1.85039
f 23/35/1 27/39/1 26/38/1

v 6.6 0 -27.1
vt -0.259843 1.06693
f 28/40/1 27/39/1 23/35/1

v 6.6 0 -28.1
vt -0.259843 1.1063
f 29/41/1 27/39/1 28/40/1

v 6.6 0 -29.6
vt -0.259843 1.16535
f 30/42/1 27/39/1 29/41/1

f 5/5/1 27/39/1 30/42/1

f 5/5/1 8/8/1 27/39/1

v 13.2 0 -51.2
vt -0.519685 2.01575
f 27/39/1 8/8/1 31/43/1

v 45.3 0 -70.2
vt -1.78346 2.76378
f 31/43/1 8/8/1 32/44/1

v 0 0.8 -70.2
vt 0 0.0314961
v 45.3 0.8 -70.2
vt -1.78346 0.0314961
f 32/11/2 8/9/2 33/45/2 34/46/2 

vt -2.76378 0
vn -1 0 -0
v 0 0.8 -0
vt -2.76378 0.0314961
f 8/47/6 9/9/6 35/45/6 33/48/6 

vt 1.78346 0
v 45.3 0.8 -0
vt 1.78346 0.0314961
f 9/9/4 11/49/4 36/50/4 35/45/4 

vn 1 0 -0
vt 2.76378 0
vt 2.76378 0.0314961
f 11/9/7 32/51/7 34/52/7 36/45/7 

v 40 0 -49.2
vt -1.5748 1.93701
f 11/11/1 37/53/1 32/44/1

v 38.5 0 -49.2
vt -1.51575 1.93701
f 11/11/1 38/54/1 37/53/1

v 37.5 0 -49.2
vt -1.47638 1.93701
f 11/11/1 39/55/1 38/54/1

v 37.3 0 -22.4
vt -1.4685 0.88189
f 11/11/1 40/56/1 39/55/1

v 35.8 0 -22.4
vt -1.40945 0.88189
f 11/11/1 41/57/1 40/56/1

v 34.8 0 -22.4
vt -1.37008 0.88189
f 11/11/1 42/58/1 41/57/1

v 33.3 0 -22.4
vt -1.31102 0.88189
f 11/11/1 43/59/1 42/58/1

v 17.7 0 -47.2
vt -0.69685 1.85827
f 11/11/1 44/60/1 43/59/1

v 15.7 0 -47.2
vt -0.61811 1.85827
f 11/11/1 45/61/1 44/60/1

v 15.2 0 -47.2
vt -0.598425 1.85827
f 11/11/1 46/62/1 45/61/1

v 14.5 0 -20.7
vt -0.570866 0.814961
f 11/11/1 47/63/1 46/62/1

v 12 0 -20.7
vt -0.472441 0.814961
f 11/11/1 48/64/1 47/63/1

v 8 0 -19.77
vt -0.314961 0.778346
f 11/11/1 49/65/1 48/64/1

v 5.6 0 -7.5
vt -0.220472 0.295276
f 11/11/1 50/66/1 49/65/1

v 4.1 0 -7.5
vt -0.161417 0.295276
f 11/11/1 51/67/1 50/66/1

f 11/11/1 12/12/1 51/67/1

v 4.1 0 -9.5
vt -0.161417 0.374016
f 51/67/1 12/12/1 52/68/1

f 52/68/1 12/12/1 17/29/1

v 4.1 0 -10
vt -0.161417 0.393701
f 52/68/1 17/29/1 53/69/1

vt 0.393701 0
vt 0.472441 0
v 4.1 0.8 -12
vt 0.472441 0.0314961
v 4.1 0.8 -10
vt 0.393701 0.0314961
f 53/70/3 17/71/3 54/72/3 55/73/3 

vt 0.161417 0
vt 0.220472 0
v 5.6 0.8 -12
vt 0.220472 0.0314961
vt 0.161417 0.0314961
f 17/74/4 19/75/4 56/76/4 54/77/4 

vt -0.472441 0
v 5.6 0 -10
vt -0.393701 0
v 5.6 0.8 -10
vt -0.393701 0.0314961
vt -0.472441 0.0314961
f 19/78/5 57/79/5 58/80/5 56/81/5 

vt -0.220472 0.393701
f 19/31/1 49/65/1 57/82/1

f 19/31/1 20/32/1 49/65/1

vt -0.314961 0
vt -0.216535 0
v 5.5 0.8 -19.77
vt -0.216535 0.0314961
v 8 0.8 -19.77
vt -0.314961 0.0314961
f 49/83/2 20/84/2 59/85/2 60/86/2 

vt 0.778346 0
vn 1 0 -4.69994e-16
vt 0.837402 0
v 5.5 0.8 -21.27
vt 0.837402 0.0314961
vt 0.778346 0.0314961
f 20/87/8 21/88/8 61/89/8 59/90/8 

vt 0.216535 0
v 8 0 -21.27
vt 0.314961 0
v 8 0.8 -21.27
vt 0.314961 0.0314961
vt 0.216535 0.0314961
f 21/91/4 62/92/4 63/93/4 61/94/4 

v 5.5 0 -21.7
vt -0.216535 0.854331
vt -0.314961 0.837402
f 21/33/1 64/95/1 62/96/1

v 5.5 0 -23.2
vt -0.216535 0.913386
f 64/95/1 21/33/1 65/97/1

f 21/33/1 22/34/1 65/97/1

v 5.5 0 -23.6
vt -0.216535 0.929134
f 66/98/1 65/97/1 22/34/1

v 8 0 -23.2
vt -0.314961 0.913386
f 65/97/1 66/98/1 67/99/1

v 8 0 -23.6
vt -0.314961 0.929134
f 67/99/1 66/98/1 68/100/1

v 5.5 0.8 -23.6
v 8 0.8 -23.6
f 68/83/2 66/84/2 69/85/2 70/86/2 

vt 0.929134 0
vt 0.988189 0
v 5.5 0.8 -25.1
vt 0.988189 0.0314961
vt 0.929134 0.0314961
f 66/101/8 22/102/8 71/103/8 69/104/8 

v 8 0.8 -25.1
f 22/91/4 24/92/4 72/93/4 71/94/4 

vt -0.988189 0
vt -0.929134 0
vt -0.929134 0.0314961
vt -0.988189 0.0314961
f 24/105/6 68/106/6 70/107/6 72/108/6 

v 8.7 0 -26
vt -0.34252 1.02362
f 24/36/1 73/109/1 68/100/1

f 24/36/1 25/37/1 73/109/1

vt -0.34252 0
vt -0.283465 0
v 7.2 0.8 -26
vt -0.283465 0.0314961
v 8.7 0.8 -26
vt -0.34252 0.0314961
f 73/110/2 25/111/2 74/112/2 75/113/2 

vt 1.02362 0
vt 1.10236 0
v 7.2 0.8 -28
vt 1.10236 0.0314961
vt 1.02362 0.0314961
f 25/114/7 26/115/7 76/116/7 74/117/7 

vt 0.283465 0
v 8.7 0 -28
vt 0.34252 0
v 8.7 0.8 -28
vt 0.34252 0.0314961
vt 0.283465 0.0314961
f 26/118/4 77/119/4 78/120/4 76/121/4 

vt -0.34252 1.10236
f 26/38/1 27/39/1 77/122/1

f 77/122/1 27/39/1 73/109/1

v 9.6 0 -41
vt -0.377953 1.61417
f 79/123/1 73/109/1 27/39/1

v 9.7 0 -26
vt -0.38189 1.02362
f 80/124/1 73/109/1 79/123/1

f 48/64/1 73/109/1 80/124/1

f 48/64/1 49/65/1 73/109/1

f 62/96/1 73/109/1 49/65/1

v 8 0 -21.7
vt -0.314961 0.854331
f 81/125/1 73/109/1 62/96/1

f 67/99/1 73/109/1 81/125/1

f 68/100/1 73/109/1 67/99/1

vt -0.913386 0
vt -0.854331 0
v 8 0.8 -21.7
vt -0.854331 0.0314961
v 8 0.8 -23.2
vt -0.913386 0.0314961
f 67/126/6 81/127/6 82/128/6 83/129/6 

v 5.5 0.8 -21.7
f 81/83/2 64/84/2 84/85/2 82/86/2 

f 62/96/1 64/95/1 81/125/1

vt 0.854331 0
vt 0.913386 0
v 5.5 0.8 -23.2
vt 0.913386 0.0314961
vt 0.854331 0.0314961
f 64/130/8 65/131/8 85/132/8 84/133/8 

f 65/91/4 67/92/4 83/93/4 85/94/4 

vt 0.216535 0.929134
vn 0 1 -0
vt 0.216535 0.913386
vt 0.314961 0.913386
f 69/134/9 85/135/9 83/136/9

vt 0.216535 0.988189
f 85/135/9 69/134/9 71/137/9

vt 0.216535 0.837402
f 71/137/9 61/138/9 85/135/9

v 4.6 0.8 -25.6
vt 0.181102 1.00787
f 71/137/9 86/139/9 61/138/9

v 6.6 0.8 -25.6
vt 0.259843 1.00787
f 86/139/9 71/137/9 87/140/9

vt 0.314961 0.988189
f 87/140/9 71/137/9 72/141/9

vt 0.283465 1.02362
f 87/140/9 72/141/9 74/142/9

vt 0.34252 1.02362
f 74/142/9 72/141/9 75/143/9

v 12 0.8 -20.7
vt 0.472441 0.814961
f 72/141/9 88/144/9 75/143/9

vt 0.314961 0.929134
f 70/145/9 88/144/9 72/141/9

f 83/136/9 88/144/9 70/145/9

vt 0.314961 0.854331
f 82/146/9 88/144/9 83/136/9

f 82/146/9 36/49/9 88/144/9

vt 0.314961 0.837402
f 63/147/9 36/49/9 82/146/9

vt 0.314961 0.778346
f 60/148/9 36/49/9 63/147/9

v 5.6 0.8 -7.5
vt 0.220472 0.295276
f 89/149/9 36/49/9 60/148/9

v 4.1 0.8 -7.5
vt 0.161417 0.295276
f 90/150/9 36/49/9 89/149/9

vt 0.122047 0.295276
f 14/151/9 36/49/9 90/150/9

vt 0.0629921 0.295276
f 13/152/9 36/49/9 14/151/9

f 13/152/9 35/9/9 36/49/9

f 35/9/9 13/152/9 33/8/9

vt 0.0629921 0.374016
f 33/8/9 13/152/9 15/153/9

v 1.6 0.8 -12
vt 0.0629921 0.472441
f 33/8/9 15/153/9 91/154/9

v 1.6 0.8 -10
vt 0.0629921 0.393701
f 15/153/9 92/155/9 91/154/9

vt 0.122047 0.374016
f 92/155/9 15/153/9 16/156/9

v 3.1 0.8 -10
vt 0.122047 0.393701
f 92/155/9 16/156/9 93/157/9

f 93/157/9 16/156/9 14/151/9

v 4.6 0.8 -29.6
vt 0.181102 1.16535
f 94/158/9 93/157/9 14/151/9

v 3.1 0.8 -12
vt 0.122047 0.472441
f 94/158/9 95/159/9 93/157/9

f 94/158/9 91/154/9 95/159/9

f 94/158/9 33/8/9 91/154/9

v 9.6 0.8 -47
vt 0.377953 1.85039
f 96/160/9 33/8/9 94/158/9

v 13.2 0.8 -51.2
vt 0.519685 2.01575
f 97/161/9 33/8/9 96/160/9

vt 1.78346 2.76378
f 33/8/9 97/161/9 34/162/9

v 15.2 0.8 -51.2
vt 0.598425 2.01575
f 34/162/9 97/161/9 98/163/9

vt 0.519685 0
v 15.2 0 -51.2
vt 0.598425 0
vt 0.598425 0.0314961
vt 0.519685 0.0314961
f 31/164/4 99/165/4 98/166/4 97/167/4 

vt -0.598425 2.01575
f 31/43/1 32/44/1 99/168/1

v 15.7 0 -51.2
vt -0.61811 2.01575
f 99/168/1 32/44/1 100/169/1

v 17.7 0 -51.2
vt -0.69685 2.01575
f 100/169/1 32/44/1 101/170/1

v 17.7 0 -49.7
vt -0.69685 1.95669
f 101/170/1 32/44/1 102/171/1

v 17.7 0 -48.7
vt -0.69685 1.91732
f 102/171/1 32/44/1 103/172/1

f 103/172/1 32/44/1 44/60/1

v 36 0 -51.2
vt -1.41732 2.01575
f 44/60/1 32/44/1 104/173/1

v 37.5 0 -51.2
vt -1.47638 2.01575
f 104/173/1 32/44/1 105/174/1

f 105/174/1 32/44/1 39/55/1

v 38.5 0 -51.2
vt -1.51575 2.01575
f 39/55/1 32/44/1 106/175/1

v 40 0 -51.2
vt -1.5748 2.01575
f 106/175/1 32/44/1 107/176/1

f 107/176/1 32/44/1 37/53/1

vt -2.01575 0
vt -1.93701 0
v 40 0.8 -49.2
vt -1.93701 0.0314961
v 40 0.8 -51.2
vt -2.01575 0.0314961
f 107/177/6 37/178/6 108/179/6 109/180/6 

vt -1.5748 0
vt -1.51575 0
v 38.5 0.8 -49.2
vt -1.51575 0.0314961
vt -1.5748 0.0314961
f 37/181/2 38/182/2 110/183/2 108/184/2 

vt 1.93701 0
vt 2.01575 0
v 38.5 0.8 -51.2
vt 2.01575 0.0314961
vt 1.93701 0.0314961
f 38/185/7 106/186/7 111/187/7 110/188/7 

f 38/54/1 39/55/1 106/175/1

vt 1.51575 0
vt 1.5748 0
vt 1.5748 0.0314961
vt 1.51575 0.0314961
f 106/189/4 107/190/4 109/191/4 111/192/4 

vt 1.51575 2.01575
vt 1.5748 2.01575
f 34/162/9 111/193/9 109/194/9

v 37.5 0.8 -51.2
vt 1.47638 2.01575
f 34/162/9 112/195/9 111/193/9

v 36 0.8 -51.2
vt 1.41732 2.01575
f 34/162/9 113/196/9 112/195/9

v 17.7 0.8 -51.2
vt 0.69685 2.01575
f 34/162/9 114/197/9 113/196/9

v 15.7 0.8 -51.2
vt 0.61811 2.01575
f 34/162/9 115/198/9 114/197/9

f 34/162/9 98/163/9 115/198/9

v 15.7 0.8 -47.2
vt 0.61811 1.85827
f 115/198/9 98/163/9 116/199/9

v 15.2 0.8 -49.7
vt 0.598425 1.95669
f 117/200/9 116/199/9 98/163/9

v 15.2 0.8 -48.7
vt 0.598425 1.91732
f 118/201/9 116/199/9 117/200/9

v 15.2 0.8 -47.2
vt 0.598425 1.85827
f 119/202/9 116/199/9 118/201/9

f 119/202/9 36/49/9 116/199/9

v 14.5 0.8 -24.2
vt 0.570866 0.952756
f 120/203/9 36/49/9 119/202/9

v 14.5 0.8 -20.7
vt 0.570866 0.814961
f 121/204/9 36/49/9 120/203/9

f 88/144/9 36/49/9 121/204/9

vt -0.570866 0
vt -0.570866 0.0314961
f 47/205/2 48/78/2 88/81/2 121/206/2 

vt 0.814961 0
v 12 0 -24.2
vt 0.952756 0
v 12 0.8 -24.2
vt 0.952756 0.0314961
vt 0.814961 0.0314961
f 48/207/7 122/208/7 123/209/7 88/210/7 

v 11.2 0 -26
vt -0.440945 1.02362
vt -0.472441 0.952756
f 48/64/1 124/211/1 122/212/1

f 48/64/1 80/124/1 124/211/1

vt -0.440945 0
vt -0.38189 0
v 9.7 0.8 -26
vt -0.38189 0.0314961
v 11.2 0.8 -26
vt -0.440945 0.0314961
f 124/213/2 80/214/2 125/215/2 126/216/2 

v 9.7 0 -28
v 9.7 0.8 -28
f 80/114/7 127/115/7 128/116/7 125/117/7 

vt -0.38189 1.10236
f 80/124/1 79/123/1 127/217/1

v 11.1 0 -41
vt -0.437008 1.61417
f 129/218/1 127/217/1 79/123/1

v 11.2 0 -28
vt -0.440945 1.10236
f 127/217/1 129/218/1 130/219/1

v 12.1 0 -47
vt -0.476378 1.85039
f 129/218/1 131/220/1 130/219/1

v 11.1 0 -43
vt -0.437008 1.69291
f 132/221/1 131/220/1 129/218/1

v 11.1 0 -45
vt -0.437008 1.77165
f 133/222/1 131/220/1 132/221/1

f 133/222/1 31/43/1 131/220/1

v 11.1 0 -47
vt -0.437008 1.85039
f 134/223/1 31/43/1 133/222/1

f 27/39/1 31/43/1 134/223/1

vt 0.377953 0
vt 0.437008 0
v 11.1 0.8 -47
vt 0.437008 0.0314961
vt 0.377953 0.0314961
f 27/224/4 134/225/4 135/226/4 96/227/4 

vt -1.85039 0
vt -1.77165 0
v 11.1 0.8 -45
vt -1.77165 0.0314961
vt -1.85039 0.0314961
f 134/228/6 133/229/6 136/230/6 135/231/6 

vt -0.437008 0
v 9.6 0 -45
vt -0.377953 0
v 9.6 0.8 -45
vt -0.377953 0.0314961
vt -0.437008 0.0314961
f 133/232/2 137/233/2 138/234/2 136/235/2 

v 9.6 0 -43
vt -0.377953 1.69291
vt -0.377953 1.77165
f 133/222/1 139/236/1 137/237/1

f 139/236/1 133/222/1 132/221/1

v 11.1 0.8 -43
v 9.6 0.8 -43
f 139/224/4 132/225/4 140/226/4 141/227/4 

vt -1.69291 0
vt -1.61417 0
v 11.1 0.8 -41
vt -1.61417 0.0314961
vt -1.69291 0.0314961
f 132/238/6 129/239/6 142/240/6 140/241/6 

v 9.6 0.8 -41
f 129/232/2 79/233/2 143/234/2 142/235/2 

vt 1.61417 0
vt 1.69291 0
vt 1.69291 0.0314961
vt 1.61417 0.0314961
f 79/242/7 139/243/7 141/244/7 143/245/7 

f 79/123/1 137/237/1 139/236/1

f 79/123/1 27/39/1 137/237/1

vt 1.77165 0
vt 1.85039 0
vt 1.85039 0.0314961
vt 1.77165 0.0314961
f 137/246/7 27/247/7 96/248/7 138/249/7 

vt 0.377953 1.69291
vt 0.377953 1.77165
f 96/160/9 141/250/9 138/251/9

vt 0.377953 1.61417
f 96/160/9 143/252/9 141/250/9

vt 0.34252 1.10236
f 96/160/9 78/253/9 143/252/9

vt 0.283465 1.10236
f 96/160/9 76/254/9 78/253/9

v 6.6 0.8 -29.6
vt 0.259843 1.16535
f 96/160/9 144/255/9 76/254/9

f 96/160/9 94/158/9 144/255/9

vt 0.181102 0
vt 0.259843 0
vt 0.259843 0.0314961
vt 0.181102 0.0314961
f 5/256/4 30/257/4 144/258/4 94/259/4 

vt -1.16535 0
vt -1.1063 0
v 6.6 0.8 -28.1
vt -1.1063 0.0314961
vt -1.16535 0.0314961
f 30/260/6 29/261/6 145/262/6 144/263/6 

vt -0.259843 0
v 4.6 0 -28.1
vt -0.181102 0
v 4.6 0.8 -28.1
vt -0.181102 0.0314961
vt -0.259843 0.0314961
f 29/264/2 146/265/2 147/266/2 145/267/2 

v 4.6 0 -27.1
vt -0.181102 1.06693
vt -0.181102 1.1063
f 29/41/1 148/268/1 146/269/1

f 148/268/1 29/41/1 28/40/1

v 6.6 0.8 -27.1
v 4.6 0.8 -27.1
f 148/256/4 28/257/4 149/258/4 150/259/4 

vt -1.06693 0
vt -1.00787 0
vt -1.00787 0.0314961
vt -1.06693 0.0314961
f 28/270/6 23/271/6 87/272/6 149/273/6 

f 23/264/2 18/265/2 86/266/2 87/267/2 

vt 1.00787 0
vt 1.06693 0
vt 1.06693 0.0314961
vt 1.00787 0.0314961
f 18/274/7 148/275/7 150/276/7 86/277/7 

f 18/30/1 146/269/1 148/268/1

f 18/30/1 5/5/1 146/269/1

vt 1.1063 0
vt 1.16535 0
vt 1.16535 0.0314961
vt 1.1063 0.0314961
f 146/278/7 5/279/7 94/280/7 147/281/7 

vt 0.181102 1.06693
vt 0.181102 1.1063
f 94/158/9 150/282/9 147/283/9

f 94/158/9 86/139/9 150/282/9

vt 0.161417 0.472441
f 94/158/9 54/284/9 86/139/9

f 94/158/9 14/151/9 54/284/9

v 4.1 0.8 -9.5
vt 0.161417 0.374016
f 14/151/9 151/285/9 54/284/9

f 14/151/9 90/150/9 151/285/9

f 51/17/3 52/18/3 151/19/3 90/20/3 

vn 9.39989e-16 0 1
v 5.6 0 -9.5
v 5.6 0.8 -9.5
f 52/74/10 152/75/10 153/76/10 151/77/10 

vt -0.220472 0.374016
f 52/68/1 57/82/1 152/286/1

f 57/82/1 52/68/1 53/69/1

vt -0.220472 0
vt -0.161417 0
vt -0.161417 0.0314961
vt -0.220472 0.0314961
f 57/287/2 53/288/2 55/289/2 58/290/2 

vt 0.161417 0.393701
vt 0.220472 0.374016
vt 0.220472 0.393701
f 55/291/9 153/292/9 58/293/9

f 55/291/9 151/285/9 153/292/9

f 151/285/9 55/291/9 54/284/9

f 58/293/9 153/292/9 89/149/9

f 152/25/5 50/26/5 89/27/5 153/28/5 

f 152/286/1 49/65/1 50/66/1

f 57/82/1 49/65/1 152/286/1

f 50/287/2 51/288/2 90/289/2 89/290/2 

f 60/148/9 58/293/9 89/149/9

vt 0.220472 0.472441
f 60/148/9 56/294/9 58/293/9

vt 0.216535 0.778346
f 59/295/9 56/294/9 60/148/9

f 86/139/9 56/294/9 59/295/9

f 56/294/9 86/139/9 54/284/9

f 86/139/9 59/295/9 61/138/9

vt 0.259843 1.06693
f 149/296/9 147/283/9 150/282/9

vt 0.259843 1.1063
f 147/283/9 149/296/9 145/297/9

f 149/296/9 74/142/9 145/297/9

f 87/140/9 74/142/9 149/296/9

f 145/297/9 74/142/9 144/255/9

f 76/254/9 144/255/9 74/142/9

vt 0.38189 1.02362
f 78/253/9 125/298/9 143/252/9

f 78/253/9 88/144/9 125/298/9

f 75/143/9 88/144/9 78/253/9

vt -1.10236 0
vt -1.02362 0
vt -1.02362 0.0314961
vt -1.10236 0.0314961
f 77/299/6 73/300/6 75/301/6 78/302/6 

vt 0.440945 1.02362
f 125/298/9 88/144/9 126/303/9

vt 0.472441 0.952756
f 123/304/9 126/303/9 88/144/9

v 12.1 0.8 -47
vt 0.476378 1.85039
f 154/305/9 126/303/9 123/304/9

v 11.2 0.8 -28
vt 0.440945 1.10236
f 154/305/9 155/306/9 126/303/9

vt 0.437008 1.85039
f 154/305/9 135/307/9 155/306/9

f 97/161/9 135/307/9 154/305/9

f 97/161/9 96/160/9 135/307/9

v 13.2 0.8 -47.2
vt 0.519685 1.85827
f 97/161/9 154/305/9 156/308/9

v 13.6 0.8 -47
vt 0.535433 1.85039
f 157/309/9 156/308/9 154/305/9

f 156/308/9 157/309/9 119/202/9

f 119/202/9 157/309/9 120/203/9

v 13.6 0.8 -45
vt 0.535433 1.77165
f 158/310/9 120/203/9 157/309/9

v 13.6 0.8 -43
vt 0.535433 1.69291
f 159/311/9 120/203/9 158/310/9

v 13.6 0.8 -41
vt 0.535433 1.61417
f 160/312/9 120/203/9 159/311/9

v 12.1 0.8 -41
vt 0.476378 1.61417
f 161/313/9 120/203/9 160/312/9

f 120/203/9 161/313/9 123/304/9

f 154/305/9 123/304/9 161/313/9

v 12.1 0.8 -43
vt 0.476378 1.69291
f 154/305/9 161/313/9 162/314/9

v 12.1 0 -41
v 12.1 0 -43
f 163/242/7 164/243/7 162/244/7 161/245/7 

vt -0.476378 1.61417
v 12.1 0 -45
vt -0.476378 1.77165
vt -0.476378 1.69291
f 163/315/1 165/316/1 164/317/1

f 163/315/1 131/220/1 165/316/1

f 163/315/1 122/212/1 131/220/1

v 14.5 0 -24.2
vt -0.570866 0.952756
f 122/212/1 163/315/1 166/318/1

v 13.6 0 -41
vt -0.535433 1.61417
f 166/318/1 163/315/1 167/319/1

vt -0.535433 0
vt -0.476378 0
vt -0.476378 0.0314961
vt -0.535433 0.0314961
f 167/320/2 163/321/2 161/322/2 160/323/2 

v 13.6 0 -43
f 168/238/6 167/239/6 160/240/6 159/241/6 

vt -0.535433 1.69291
f 168/324/1 46/62/1 167/319/1

v 13.6 0 -45
vt -0.535433 1.77165
f 169/325/1 46/62/1 168/324/1

v 13.6 0 -47
vt -0.535433 1.85039
f 170/326/1 46/62/1 169/325/1

v 13.2 0 -47.2
vt -0.519685 1.85827
f 170/326/1 171/327/1 46/62/1

f 131/220/1 171/327/1 170/326/1

f 171/327/1 131/220/1 31/43/1

v 13.2 0 -49.7
vt -0.519685 1.95669
f 171/327/1 31/43/1 172/328/1

vt 1.95669 0
v 13.2 0.8 -49.7
vt 1.95669 0.0314961
f 172/329/7 31/186/7 97/187/7 173/330/7 

v 13.2 0.8 -48.7
vt 0.519685 1.91732
vt 0.519685 1.95669
f 97/161/9 174/331/9 173/332/9

f 97/161/9 156/308/9 174/331/9

vt 1.85827 0
v 13.2 0 -48.7
vt 1.91732 0
vt 1.91732 0.0314961
vt 1.85827 0.0314961
f 171/333/7 175/334/7 174/335/7 156/336/7 

vt -0.519685 1.91732
f 171/327/1 172/328/1 175/337/1

v 15.2 0 -49.7
vt -0.598425 1.95669
f 176/338/1 175/337/1 172/328/1

v 15.2 0 -48.7
vt -0.598425 1.91732
f 175/337/1 176/338/1 177/339/1

f 176/338/1 100/169/1 177/339/1

f 99/168/1 100/169/1 176/338/1

vt -1.95669 0
vt -1.95669 0.0314961
f 99/177/6 176/340/6 117/341/6 98/180/6 

vt -0.598425 0
vt -0.519685 0
vt -0.519685 0.0314961
vt -0.598425 0.0314961
f 176/342/2 172/343/2 173/344/2 117/345/2 

f 173/332/9 118/201/9 117/200/9

f 118/201/9 173/332/9 174/331/9

f 175/164/4 177/165/4 118/166/4 174/167/4 

vt -1.91732 0
vt -1.85827 0
vt -1.85827 0.0314961
vt -1.91732 0.0314961
f 177/346/6 46/347/6 119/348/6 118/349/6 

f 177/339/1 100/169/1 46/62/1

f 45/61/1 46/62/1 100/169/1

v 15.7 0 -49.7
vt -0.61811 1.95669
f 45/61/1 100/169/1 178/350/1

v 15.7 0.8 -49.7
f 178/329/7 100/186/7 115/187/7 179/330/7 

vt 0.61811 0
vt 0.69685 0
vt 0.69685 0.0314961
vt 0.61811 0.0314961
f 100/351/4 101/352/4 114/353/4 115/354/4 

v 17.7 0.8 -49.7
f 101/177/6 102/340/6 180/341/6 114/180/6 

vt -0.69685 0
vt -0.61811 0
vt -0.61811 0.0314961
vt -0.69685 0.0314961
f 102/355/2 178/356/2 179/357/2 180/358/2 

v 15.7 0 -48.7
vt -0.61811 1.91732
f 102/171/1 181/359/1 178/350/1

f 181/359/1 102/171/1 103/172/1

v 17.7 0.8 -48.7
v 15.7 0.8 -48.7
f 181/351/4 103/352/4 182/353/4 183/354/4 

v 17.7 0.8 -47.2
f 103/346/6 44/347/6 184/348/6 182/349/6 

f 44/355/2 45/356/2 116/357/2 184/358/2 

f 45/333/7 181/334/7 183/335/7 116/336/7 

f 45/61/1 178/350/1 181/359/1

vt 0.61811 1.91732
f 115/198/9 116/199/9 183/360/9

vt 0.61811 1.95669
f 115/198/9 183/360/9 179/361/9

vt 0.69685 1.91732
f 182/362/9 179/361/9 183/360/9

vt 0.69685 1.95669
f 179/361/9 182/362/9 180/363/9

f 182/362/9 36/49/9 180/363/9

vt 0.69685 1.85827
f 184/364/9 36/49/9 182/362/9

f 116/199/9 36/49/9 184/364/9

f 180/363/9 36/49/9 114/197/9

v 33.3 0.8 -22.4
vt 1.31102 0.88189
f 114/197/9 36/49/9 185/365/9

v 34.8 0.8 -22.4
vt 1.37008 0.88189
f 185/365/9 36/49/9 186/366/9

v 34.8 0.8 -24.4
vt 1.37008 0.96063
f 186/366/9 36/49/9 187/367/9

v 35.8 0.8 -22.4
vt 1.40945 0.88189
f 187/367/9 36/49/9 188/368/9

v 37.3 0.8 -22.4
vt 1.4685 0.88189
f 188/368/9 36/49/9 189/369/9

v 37.3 0.8 -24.4
vt 1.4685 0.96063
f 189/369/9 36/49/9 190/370/9

v 37.5 0.8 -49.2
vt 1.47638 1.93701
f 190/370/9 36/49/9 191/371/9

f 191/371/9 36/49/9 112/195/9

vt 1.51575 1.93701
f 112/195/9 36/49/9 110/372/9

vt 1.5748 1.93701
f 110/372/9 36/49/9 108/373/9

f 108/373/9 36/49/9 109/194/9

f 34/162/9 109/194/9 36/49/9

f 111/193/9 112/195/9 110/372/9

f 105/177/6 39/178/6 191/179/6 112/180/6 

vt -1.47638 0
v 36 0 -49.2
vt -1.41732 0
v 36 0.8 -49.2
vt -1.41732 0.0314961
vt -1.47638 0.0314961
f 39/374/2 192/375/2 193/376/2 191/377/2 

v 37 0 -34.2
vt -1.45669 1.34646
vt -1.41732 1.93701
f 194/378/1 192/379/1 39/55/1

v 35 0 -34.2
vt -1.37795 1.34646
f 195/380/1 192/379/1 194/378/1

f 192/379/1 195/380/1 104/173/1

v 33.3 0 -24.4
vt -1.31102 0.96063
f 196/381/1 104/173/1 195/380/1

f 44/60/1 104/173/1 196/381/1

f 43/59/1 44/60/1 196/381/1

vt 0.88189 0
vt 0.96063 0
v 33.3 0.8 -24.4
vt 0.96063 0.0314961
vt 0.88189 0.0314961
f 43/382/7 196/383/7 197/384/7 185/385/7 

vt 1.31102 0
vn 1.87998e-15 0 1
v 34.8 0 -24.4
vt 1.37008 0
vt 1.37008 0.0314961
vt 1.31102 0.0314961
f 196/386/11 198/387/11 187/388/11 197/389/11 

vt -1.37008 0.96063
f 196/381/1 195/380/1 198/390/1

f 198/390/1 195/380/1 42/58/1

v 35 0 -25.6
vt -1.37795 1.00787
f 199/391/1 42/58/1 195/380/1

f 41/57/1 42/58/1 199/391/1

v 35.8 0 -24.4
vt -1.40945 0.96063
f 41/57/1 199/391/1 200/392/1

v 37 0 -25.6
vt -1.45669 1.00787
f 201/393/1 200/392/1 199/391/1

v 37.3 0 -24.4
vt -1.4685 0.96063
f 200/392/1 201/393/1 202/394/1

f 201/393/1 39/55/1 202/394/1

v 37 0 -27.1
vt -1.45669 1.06693
f 203/395/1 39/55/1 201/393/1

v 37 0 -28.1
vt -1.45669 1.1063
f 204/396/1 39/55/1 203/395/1

v 37 0 -29.6
vt -1.45669 1.16535
f 205/397/1 39/55/1 204/396/1

v 37 0 -30.2
vt -1.45669 1.18898
f 206/398/1 39/55/1 205/397/1

v 37 0 -31.7
vt -1.45669 1.24803
f 207/399/1 39/55/1 206/398/1

v 37 0 -32.7
vt -1.45669 1.2874
f 208/400/1 39/55/1 207/399/1

f 194/378/1 39/55/1 208/400/1

vt -1.34646 0
vt -1.2874 0
v 37 0.8 -32.7
vt -1.2874 0.0314961
v 37 0.8 -34.2
vt -1.34646 0.0314961
f 194/401/6 208/402/6 209/403/6 210/404/6 

vt -1.45669 0
v 35 0 -32.7
vt -1.37795 0
v 35 0.8 -32.7
vt -1.37795 0.0314961
vt -1.45669 0.0314961
f 208/405/2 211/406/2 212/407/2 209/408/2 

v 35 0 -31.7
vt -1.37795 1.24803
vt -1.37795 1.2874
f 208/400/1 213/409/1 211/410/1

f 213/409/1 208/400/1 207/399/1

vt 1.37795 0
vt 1.45669 0
v 37 0.8 -31.7
vt 1.45669 0.0314961
v 35 0.8 -31.7
vt 1.37795 0.0314961
f 213/411/4 207/412/4 214/413/4 215/414/4 

vt -1.24803 0
vt -1.18898 0
v 37 0.8 -30.2
vt -1.18898 0.0314961
vt -1.24803 0.0314961
f 207/415/6 206/416/6 216/417/6 214/418/6 

v 35 0 -30.2
v 35 0.8 -30.2
f 206/405/2 217/406/2 218/407/2 216/408/2 

v 35 0 -29.6
vt -1.37795 1.16535
vt -1.37795 1.18898
f 206/398/1 219/419/1 217/420/1

f 219/419/1 206/398/1 205/397/1

v 37 0.8 -29.6
v 35 0.8 -29.6
f 219/411/4 205/412/4 220/413/4 221/414/4 

v 37 0.8 -28.1
f 205/260/6 204/261/6 222/262/6 220/263/6 

v 35 0 -28.1
v 35 0.8 -28.1
f 204/405/2 223/406/2 224/407/2 222/408/2 

v 35 0 -27.1
vt -1.37795 1.06693
vt -1.37795 1.1063
f 204/396/1 225/421/1 223/422/1

f 225/421/1 204/396/1 203/395/1

v 37 0.8 -27.1
v 35 0.8 -27.1
f 225/411/4 203/412/4 226/413/4 227/414/4 

v 37 0.8 -25.6
f 203/270/6 201/271/6 228/272/6 226/273/6 

v 35 0.8 -25.6
f 201/405/2 199/406/2 229/407/2 228/408/2 

f 199/274/7 225/275/7 227/276/7 229/277/7 

f 199/391/1 223/422/1 225/421/1

f 199/391/1 219/419/1 223/422/1

f 199/391/1 217/420/1 219/419/1

f 199/391/1 213/409/1 217/420/1

f 199/391/1 211/410/1 213/409/1

f 199/391/1 195/380/1 211/410/1

vt 1.2874 0
vt 1.34646 0
v 35 0.8 -34.2
vt 1.34646 0.0314961
vt 1.2874 0.0314961
f 211/423/7 195/424/7 230/425/7 212/426/7 

f 195/411/4 194/412/4 210/413/4 230/414/4 

vt 1.45669 1.34646
vt 1.41732 1.93701
vt 1.37795 1.34646
f 210/427/9 193/428/9 230/429/9

f 193/428/9 210/427/9 191/371/9

f 191/371/9 210/427/9 190/370/9

vt 1.45669 1.2874
f 209/430/9 190/370/9 210/427/9

vt 1.45669 1.24803
f 214/431/9 190/370/9 209/430/9

vt 1.45669 1.18898
f 216/432/9 190/370/9 214/431/9

vt 1.45669 1.16535
f 220/433/9 190/370/9 216/432/9

vt 1.45669 1.1063
f 222/434/9 190/370/9 220/433/9

vt 1.45669 1.06693
f 226/435/9 190/370/9 222/434/9

vt 1.45669 1.00787
f 228/436/9 190/370/9 226/435/9

v 35.8 0.8 -24.4
vt 1.40945 0.96063
f 228/436/9 231/437/9 190/370/9

vt 1.37795 1.00787
f 229/438/9 231/437/9 228/436/9

f 231/437/9 229/438/9 188/368/9

f 187/367/9 188/368/9 229/438/9

f 230/429/9 187/367/9 229/438/9

vt 1.31102 0.96063
f 230/429/9 197/439/9 187/367/9

f 113/196/9 197/439/9 230/429/9

f 113/196/9 114/197/9 197/439/9

f 197/439/9 114/197/9 185/365/9

f 113/196/9 230/429/9 193/428/9

f 192/185/7 104/186/7 113/187/7 193/188/7 

vt 1.41732 0
vt 1.47638 0
vt 1.47638 0.0314961
vt 1.41732 0.0314961
f 104/440/4 105/441/4 112/442/4 113/443/4 

vt 1.37795 1.06693
f 230/429/9 229/438/9 227/444/9

vt 1.37795 1.1063
f 230/429/9 227/444/9 224/445/9

f 226/435/9 224/445/9 227/444/9

f 224/445/9 226/435/9 222/434/9

vt 1.37795 1.16535
f 230/429/9 224/445/9 221/446/9

f 223/278/7 219/279/7 221/280/7 224/281/7 

vt 1.37795 1.18898
f 230/429/9 221/446/9 218/447/9

f 220/433/9 218/447/9 221/446/9

f 218/447/9 220/433/9 216/432/9

vt 1.37795 1.24803
f 230/429/9 218/447/9 215/448/9

vt 1.18898 0
vt 1.24803 0
vt 1.24803 0.0314961
vt 1.18898 0.0314961
f 217/449/7 213/450/7 215/451/7 218/452/7 

vt 1.37795 1.2874
f 230/429/9 215/448/9 212/453/9

f 214/431/9 212/453/9 215/448/9

f 212/453/9 214/431/9 209/430/9

f 41/382/7 200/383/7 231/384/7 188/385/7 

vt 1.40945 0
vt 1.4685 0
vt 1.4685 0.0314961
vt 1.40945 0.0314961
f 200/454/4 202/455/4 190/456/4 231/457/4 

vt -0.96063 0
vt -0.88189 0
vt -0.88189 0.0314961
vt -0.96063 0.0314961
f 202/458/6 40/459/6 189/460/6 190/461/6 

f 202/394/1 39/55/1 40/56/1

vt -1.4685 0
vt -1.40945 0
vt -1.40945 0.0314961
vt -1.4685 0.0314961
f 40/462/2 41/463/2 188/464/2 189/465/2 

f 198/458/6 42/459/6 186/460/6 187/461/6 

vt -1.37008 0
vn -1.87998e-15 0 -1
vt -1.31102 0
vt -1.31102 0.0314961
vt -1.37008 0.0314961
f 42/466/12 43/467/12 185/468/12 186/469/12 

f 46/342/2 171/343/2 156/344/2 119/345/2 

vt 0.476378 0
vn 3.75996e-15 0 1
vt 0.535433 0
vt 0.535433 0.0314961
vt 0.476378 0.0314961
f 131/470/13 170/471/13 157/472/13 154/473/13 

f 170/228/6 169/229/6 158/230/6 157/231/6 

v 12.1 0.8 -45
f 169/320/2 165/321/2 232/322/2 158/323/2 

f 169/325/1 164/317/1 165/316/1

f 164/317/1 169/325/1 168/324/1

f 164/470/4 168/471/4 159/472/4 162/473/4 

vt 0.476378 1.77165
f 159/311/9 232/474/9 162/314/9

f 232/474/9 159/311/9 158/310/9

f 154/305/9 162/314/9 232/474/9

f 165/246/7 131/247/7 154/248/7 232/249/7 

f 167/319/1 46/62/1 166/318/1

f 166/318/1 46/62/1 47/63/1

vt -0.952756 0
vt -0.814961 0
vt -0.814961 0.0314961
vt -0.952756 0.0314961
f 166/475/6 47/476/6 121/477/6 120/478/6 

vt 0.570866 0
vt 0.570866 0.0314961
f 122/71/4 166/479/4 120/480/4 123/72/4 

f 124/211/1 131/220/1 122/212/1

f 130/219/1 131/220/1 124/211/1

vn -1 0 7.04992e-16
f 130/299/14 124/300/14 126/301/14 155/302/14 

vt 0.38189 0
vt 0.440945 0
vt 0.440945 0.0314961
vt 0.38189 0.0314961
f 127/481/13 130/482/13 155/483/13 128/484/13 

vt 0.437008 1.61417
vt 0.38189 1.10236
f 142/485/9 128/486/9 155/306/9

f 143/252/9 128/486/9 142/485/9

f 128/486/9 143/252/9 125/298/9

vt 0.437008 1.69291
f 142/485/9 155/306/9 140/487/9

vt 0.437008 1.77165
f 140/487/9 155/306/9 136/488/9

f 136/488/9 155/306/9 135/307/9

f 138/251/9 140/487/9 136/488/9

f 140/487/9 138/251/9 141/250/9

f 7/21/4 6/22/4 95/23/4 91/24/4 

f 6/78/5 1/79/5 93/80/5 95/81/5 

f 1/13/2 3/14/2 92/15/2 93/16/2 

f 3/70/3 7/71/3 91/72/3 92/73/3 

f 2/2/1 7/7/1 3/3/1

vt -0.837402 0
vt -0.778346 0
vt -0.778346 0.0314961
vt -0.837402 0.0314961
f 62/489/6 49/490/6 60/491/6 63/492/6 

vt 0.216535 0.854331
f 84/493/9 63/147/9 82/146/9

f 84/493/9 61/138/9 63/147/9

f 61/138/9 84/493/9 85/135/9

f 69/134/9 83/136/9 70/145/9

